<?xml version="1.0" encoding="utf-8"?>
<svg xmlns="http://www.w3.org/2000/svg" width="876.3" height="651.546" viewBox="0 0 876.3 651.546">
  <g id="site_web_fichier_collaboration" transform="translate(0 -9.954)">
    <path id="Tracé_15600" data-name="Tracé 15600" d="M505,42.2c7.5,16-8.4,20.5-26.7,29.1s-31.9,17.9-39.4,1.9-13.6-47.7,12.2-59.9C477.8.8,497.5,26.2,505,42.2Z" fill="#2f2e41"/>
    <circle id="Ellipse_2232" data-name="Ellipse 2232" cx="24.6" cy="24.6" r="24.6" transform="translate(443.1 24.5)" fill="#ffb8b8"/>
    <path id="Tracé_15601" data-name="Tracé 15601" d="M589.4,148c-.9-1.1-1.7-2.2-2.6-3.3-1.1-1.4-2.2-2.7-3.4-4-12.7-14.7-26.3-23.9-41.2-24.9H542l-29.7,29-10.1,9.8.2.5,5.4,13.6h95.5A213.79,213.79,0,0,0,589.4,148Z" fill="#2f2e41"/>
    <path id="Tracé_15602" data-name="Tracé 15602" d="M441,59h0l8.8-4.1-1.2-12.7,5.9,10.5,4.2-2-.7-7.4,3.4,6.1,31.2-14.7h0A26.022,26.022,0,0,0,458,22.2l-4.5,2.1A26.167,26.167,0,0,0,441,59Z" fill="#2f2e41"/>
    <path id="Tracé_15603" data-name="Tracé 15603" d="M644.5,494.8H131.7a16.516,16.516,0,0,1-16.5-16.5V170.1A12.078,12.078,0,0,1,127.3,158H648.8a12.291,12.291,0,0,1,12.3,12.3V478.2A16.688,16.688,0,0,1,644.5,494.8Z" fill="#f2f2f2"/>
    <path id="Tracé_15604" data-name="Tracé 15604" d="M147.7,478.3H628.5a16.047,16.047,0,0,0,16-16V200.8a16.047,16.047,0,0,0-16-16H147.7a16.047,16.047,0,0,0-16,16V462.3A16.047,16.047,0,0,0,147.7,478.3Z" fill="#fff"/>
    <path id="Tracé_15605" data-name="Tracé 15605" d="M660.8,169.2H115v-8.4a16.538,16.538,0,0,1,16.6-16.5H644.3a16.667,16.667,0,0,1,16.6,16.5v8.4Z" fill="#572ce8"/>
    <circle id="Ellipse_2233" data-name="Ellipse 2233" cx="4.3" cy="4.3" r="4.3" transform="translate(140.8 152.5)" fill="#fff"/>
    <circle id="Ellipse_2234" data-name="Ellipse 2234" cx="4.3" cy="4.3" r="4.3" transform="translate(157 152.5)" fill="#fff"/>
    <circle id="Ellipse_2235" data-name="Ellipse 2235" cx="4.3" cy="4.3" r="4.3" transform="translate(173.3 152.5)" fill="#fff"/>
    <path id="Tracé_15606" data-name="Tracé 15606" d="M403.1,421.6h-43a9.56,9.56,0,0,1-9.5-9.5v-43a9.56,9.56,0,0,1,9.5-9.5h43a9.56,9.56,0,0,1,9.5,9.5v43A9.5,9.5,0,0,1,403.1,421.6Zm-43-60a7.555,7.555,0,0,0-7.5,7.5v43a7.555,7.555,0,0,0,7.5,7.5h43a7.555,7.555,0,0,0,7.5-7.5v-43a7.555,7.555,0,0,0-7.5-7.5Z" fill="#ccc"/>
    <path id="Tracé_15607" data-name="Tracé 15607" d="M394.6,409.6h-26a2.946,2.946,0,0,1-3-3v-32a2.946,2.946,0,0,1,3-3h18.8a2.805,2.805,0,0,1,1.9.7l7.2,5.8a2.99,2.99,0,0,1,1.1,2.3v26.2A3.009,3.009,0,0,1,394.6,409.6Zm-26-36a.945.945,0,0,0-1,1v32a.945.945,0,0,0,1,1h26a.945.945,0,0,0,1-1V380.4a.909.909,0,0,0-.4-.8l-7.2-5.8a1.421,1.421,0,0,0-.6-.2Z" fill="#ccc"/>
    <path id="Tracé_15608" data-name="Tracé 15608" d="M389.6,385.6h-16a1,1,0,0,1,0-2h16a1,1,0,0,1,0,2Z" fill="#ccc"/>
    <path id="Tracé_15609" data-name="Tracé 15609" d="M389.6,391.6h-16a1,1,0,0,1,0-2h16a1,1,0,0,1,0,2Z" fill="#ccc"/>
    <path id="Tracé_15610" data-name="Tracé 15610" d="M389.6,397.6h-16a1,1,0,0,1,0-2h16a1,1,0,0,1,0,2Z" fill="#ccc"/>
    <path id="Tracé_15611" data-name="Tracé 15611" d="M505.1,421.6h-43a9.56,9.56,0,0,1-9.5-9.5v-43a9.56,9.56,0,0,1,9.5-9.5h43a9.56,9.56,0,0,1,9.5,9.5v43A9.5,9.5,0,0,1,505.1,421.6Zm-43-60a7.555,7.555,0,0,0-7.5,7.5v43a7.555,7.555,0,0,0,7.5,7.5h43a7.555,7.555,0,0,0,7.5-7.5v-43a7.555,7.555,0,0,0-7.5-7.5Z" fill="#ccc"/>
    <path id="Tracé_15612" data-name="Tracé 15612" d="M497.6,401.6h-28a2.946,2.946,0,0,1-3-3v-16a2.946,2.946,0,0,1,3-3h28a2.946,2.946,0,0,1,3,3v16A3.009,3.009,0,0,1,497.6,401.6Zm-28-20a.945.945,0,0,0-1,1v16a.945.945,0,0,0,1,1h28a.945.945,0,0,0,1-1v-16a.945.945,0,0,0-1-1Z" fill="#ccc"/>
    <path id="Tracé_15613" data-name="Tracé 15613" d="M483.6,393.2a3.022,3.022,0,0,1-1.6-.5l-14.9-9.3a1.012,1.012,0,0,1,1.1-1.7l14.9,9.3a1.079,1.079,0,0,0,1.1,0l14.9-9.3a1.012,1.012,0,0,1,1.1,1.7l-14.9,9.3A2.794,2.794,0,0,1,483.6,393.2Z" fill="#ccc"/>
    <path id="Tracé_15614" data-name="Tracé 15614" d="M301.1,421.6h-43a9.56,9.56,0,0,1-9.5-9.5v-43a9.56,9.56,0,0,1,9.5-9.5h43a9.56,9.56,0,0,1,9.5,9.5v43A9.5,9.5,0,0,1,301.1,421.6Zm-43-60a7.555,7.555,0,0,0-7.5,7.5v43a7.555,7.555,0,0,0,7.5,7.5h43a7.555,7.555,0,0,0,7.5-7.5v-43a7.555,7.555,0,0,0-7.5-7.5Z" fill="#ccc"/>
    <path id="Tracé_15615" data-name="Tracé 15615" d="M293.6,401.6h-28a2.946,2.946,0,0,1-3-3v-16a2.946,2.946,0,0,1,3-3h28a2.946,2.946,0,0,1,3,3v16A3.009,3.009,0,0,1,293.6,401.6Zm-28-20a.945.945,0,0,0-1,1v16a.945.945,0,0,0,1,1h28a.945.945,0,0,0,1-1v-16a.945.945,0,0,0-1-1Z" fill="#ccc"/>
    <path id="Tracé_15616" data-name="Tracé 15616" d="M289.2,401.6H269a2.006,2.006,0,0,1-2-2,1.689,1.689,0,0,1,.3-1l6.1-10.5a1.9,1.9,0,0,1,2.7-.7,1.576,1.576,0,0,1,.7.7l3.9,6.8L283,391a1.9,1.9,0,0,1,2.7-.7,1.576,1.576,0,0,1,.7.7l4.4,7.6a1.939,1.939,0,0,1-.7,2.7,1.4,1.4,0,0,1-.9.3Zm0-2h0l-4.4-7.6-3.1,5.4a1.05,1.05,0,0,1-.9.5h0a1.05,1.05,0,0,1-.9-.5l-4.8-8.3L269,399.6Z" fill="#ccc"/>
    <circle id="Ellipse_2236" data-name="Ellipse 2236" cx="2" cy="2" r="2" transform="translate(288.6 383.6)" fill="#ccc"/>
    <path id="Tracé_15617" data-name="Tracé 15617" d="M768.8,648.2l-12.2-.1-5.9-47.2h18.1Z" fill="#ffb8b8"/>
    <path id="Tracé_15618" data-name="Tracé 15618" d="M772,660H732.5v-.5a15.407,15.407,0,0,1,15.4-15.4H772Z" fill="#2f2e41"/>
    <path id="Tracé_15619" data-name="Tracé 15619" d="M818.8,648.2l-12.2-.1-5.9-47.2h18.1Z" fill="#ffb8b8"/>
    <path id="Tracé_15620" data-name="Tracé 15620" d="M822,660H782.5v-.5a15.407,15.407,0,0,1,15.4-15.4H822Z" fill="#2f2e41"/>
    <path id="Tracé_15621" data-name="Tracé 15621" d="M815.1,627.7l-11.4-3.5a4.517,4.517,0,0,1-3.2-3.8L790,520c0-.3-.2-.4-.5-.4a.458.458,0,0,0-.5.4l-17.7,97.2a4.445,4.445,0,0,1-5.2,3.6H766l-14.5-3a4.622,4.622,0,0,1-3.6-4.7l10.8-159.3,73.1-7.9L821,623.6a4.423,4.423,0,0,1-4.5,4.2A6.6,6.6,0,0,1,815.1,627.7Z" fill="#2f2e41"/>
    <circle id="Ellipse_2237" data-name="Ellipse 2237" cx="24.6" cy="24.6" r="24.6" transform="translate(790.5 273.9)" fill="#ffb8b8"/>
    <path id="Tracé_15622" data-name="Tracé 15622" d="M758.6,454.7l15.9-99.9a37.853,37.853,0,0,1,43.3-31.4,39.918,39.918,0,0,1,4.7,1.1h0a37.742,37.742,0,0,1,26.6,43.3L832.5,457Z" fill="#572ce8"/>
    <path id="Tracé_15623" data-name="Tracé 15623" d="M821.9,472.6a10.128,10.128,0,0,0,2.9-13.9,7.552,7.552,0,0,0-1.1-1.4l16.4-31.8-18.5,2-12.7,29.8a10.12,10.12,0,0,0,.6,14.3,9.942,9.942,0,0,0,12.4,1Z" fill="#ffb8b8"/>
    <path id="Tracé_15624" data-name="Tracé 15624" d="M825.4,451.7a3.7,3.7,0,0,1-2.4-1.2l-6.3-5.8a4.609,4.609,0,0,1-1.1-5.1l12.5-29.7-1.8-58.7a14.482,14.482,0,0,1,28.7,3.9h0l3,36.9a46.894,46.894,0,0,1-8.9,31.4l-19.6,26.4a4.557,4.557,0,0,1-3.2,1.8A2.482,2.482,0,0,1,825.4,451.7Z" fill="#572ce8"/>
    <path id="Tracé_15625" data-name="Tracé 15625" d="M673.6,277.1a10.072,10.072,0,0,0,11.7,8.1,8.447,8.447,0,0,0,1.7-.5l22.8,27.5,5.4-17.8L692.8,271a10.151,10.151,0,0,0-19.2,6.1Z" fill="#ffb8b8"/>
    <path id="Tracé_15626" data-name="Tracé 15626" d="M691.5,288.5a4.939,4.939,0,0,1,2-1.8l7.8-3.5a4.446,4.446,0,0,1,5.1,1l22.5,23.1,54.8,21.3a14.526,14.526,0,0,1-14.8,25h0L733.7,342a46.081,46.081,0,0,1-25.4-20.5l-16.7-28.3a4.541,4.541,0,0,1-.4-3.6A2.9,2.9,0,0,1,691.5,288.5Z" fill="#572ce8"/>
    <path id="Tracé_15627" data-name="Tracé 15627" d="M835,375.7l-1,32-18.4,32L831,404Z" opacity="0.1"/>
    <path id="Tracé_15628" data-name="Tracé 15628" d="M812.3,303.1a6.38,6.38,0,0,1-7-4.7,9.957,9.957,0,0,0-7-7.3c-4.5-1-10,1.1-13.3-2.3a6.9,6.9,0,0,1-1.6-5.8c.6-3.3,3-5.8,5.6-7.8a34.029,34.029,0,0,1,18.9-7.1,75.25,75.25,0,0,1,10.6.5,45.49,45.49,0,0,1,10.9,2,25.508,25.508,0,0,1,16,18.7,29.5,29.5,0,0,1-6.1,24.1,32.081,32.081,0,0,1-12.2,9.3,4.962,4.962,0,0,1-3.6.2c-3-1.2-2.5-4.8-1.1-7.3,1.4-2.6,3.7-5.1,2.5-8.3a6.455,6.455,0,0,0-3.1-3.4c-3-1.5-6.3-1.2-9.5-.8Z" fill="#2f2e41"/>
    <path id="Tracé_15629" data-name="Tracé 15629" d="M665.4,309h-304a16.516,16.516,0,0,1-16.5-16.5v-65A16.516,16.516,0,0,1,361.4,211h304a16.516,16.516,0,0,1,16.5,16.5v65A16.516,16.516,0,0,1,665.4,309Z" fill="#fff"/>
    <path id="Tracé_15630" data-name="Tracé 15630" d="M665.4,309.5h-304a16.986,16.986,0,0,1-17-17v-65a16.986,16.986,0,0,1,17-17h304a16.986,16.986,0,0,1,17,17v65A16.986,16.986,0,0,1,665.4,309.5Zm-304-97a14.98,14.98,0,0,0-15,15v65a14.98,14.98,0,0,0,15,15h304a14.98,14.98,0,0,0,15-15v-65a14.98,14.98,0,0,0-15-15Z" fill="#3f3d56"/>
    <path id="Tracé_15631" data-name="Tracé 15631" d="M628.4,293h-230a16.516,16.516,0,0,1-16.5-16.5v-34A16.516,16.516,0,0,1,398.4,226h230a16.516,16.516,0,0,1,16.5,16.5v34A16.516,16.516,0,0,1,628.4,293Z" fill="#f2f2f2"/>
    <circle id="Ellipse_2238" data-name="Ellipse 2238" cx="19.7" cy="19.7" r="19.7" transform="translate(428.2 235.2)" fill="#5de8c1"/>
    <path id="Tracé_15632" data-name="Tracé 15632" d="M614.1,291l-27.9-23.4-27.4-23a4.074,4.074,0,0,0-5.2,0l-27.3,23.1-6.7,5.6-10-8.4-30.5-25.6a4.074,4.074,0,0,0-5.2,0L443.5,265l-30.9,26.1a.972.972,0,0,0-.1,1.4,1.234,1.234,0,0,0,.8.4l63.4-.1h20.1l-.2.2,59.8-.1,57.1-.1a.945.945,0,0,0,1-1A.909.909,0,0,0,614.1,291Z" fill="#3f3d56"/>
    <path id="Tracé_15633" data-name="Tracé 15633" d="M875.3,661.5h-192a1,1,0,0,1,0-2h192a.945.945,0,0,1,1,1A1,1,0,0,1,875.3,661.5Z" fill="#ccc"/>
    <path id="Tracé_15634" data-name="Tracé 15634" d="M604.1,131.9a11.087,11.087,0,0,0-7.2-5.1,8.807,8.807,0,0,0-1.7-.2L519,58.5a9.268,9.268,0,0,0-5.6-2.7,5.633,5.633,0,0,0-1.3,0,9.051,9.051,0,0,0-5.9,15.5l29.2,25.4,47.9,41.8a8.518,8.518,0,0,0,.4,2.3,11.323,11.323,0,0,0,9.7,8.4,11.6,11.6,0,0,0,6.1-1,11.351,11.351,0,0,0,3.9-3,1.381,1.381,0,0,0,.3-.4,12.035,12.035,0,0,0,.4-12.9Z" fill="#ffb8b8"/>
    <path id="Tracé_15635" data-name="Tracé 15635" d="M473.7,197.6l-.7-28.9-.6-24L472,128l-.8-32.7a9.12,9.12,0,0,0-9.8-8.2,9.253,9.253,0,0,0-5.9,2.9,8.745,8.745,0,0,0-.8,1,9.38,9.38,0,0,0-1.6,6.1l1.8,47.7.9,24,1.1,30.5c-.3.4-.6.9-.9,1.4a11.272,11.272,0,0,0,13.6,15.9,6.119,6.119,0,0,0,1.2-.5,11.285,11.285,0,0,0,5.4-15,9.428,9.428,0,0,0-2.5-3.5Z" fill="#ffb8b8"/>
    <path id="Tracé_15636" data-name="Tracé 15636" d="M542.3,115.8l-7.1-19.1-11.4-31a16.046,16.046,0,0,0-10-9.7c-.2-.1-.4-.1-.5-.2a15.735,15.735,0,0,0-13.2,1.8L461.6,82a16.179,16.179,0,0,0-5.3,21.8c4.8,8.3,10.1,16.4,15.7,24.2,4.5,6.1,12.9,6.8,14.3,16.8h28.4L543.5,119Z" fill="#ccc"/>
    <circle id="Ellipse_2239" data-name="Ellipse 2239" cx="23.2" cy="23.2" r="23.2" transform="translate(78 312.5)" fill="#a0616a"/>
    <path id="Tracé_15637" data-name="Tracé 15637" d="M158.1,310.7a4.349,4.349,0,0,0,.7.6,10.324,10.324,0,0,1,.4,14.7,6.47,6.47,0,0,1-.9.8c-.3.2-.5.4-.8.6l1.6,52.9a8.112,8.112,0,0,1-5.5,7.9h-.1l-43,4.6a8.9,8.9,0,1,1-1.9-17.7h.2l30.6-2.7,5.3-45.9a9.428,9.428,0,0,1-1-1,10.413,10.413,0,0,1,1.2-14.6,10.531,10.531,0,0,1,13.2-.2Z" fill="#a0616a"/>
    <path id="Tracé_15638" data-name="Tracé 15638" d="M139.3,649.2h11.6l5.5-44.6H139.3Z" fill="#a0616a"/>
    <path id="Tracé_15639" data-name="Tracé 15639" d="M136.4,645.4h22.8a14.51,14.51,0,0,1,14.5,14.5h0v.5H136.4Z" fill="#2f2e41"/>
    <path id="Tracé_15640" data-name="Tracé 15640" d="M24.4,633.2l9.9,5.9,27.6-35.5-14.7-8.8Z" fill="#a0616a"/>
    <path id="Tracé_15641" data-name="Tracé 15641" d="M23.8,628.4l19.6,11.7h0a14.492,14.492,0,0,1,5,19.9h0l-.2.4-32-19.1Z" fill="#2f2e41"/>
    <path id="Tracé_15642" data-name="Tracé 15642" d="M153.6,633.4h-13a4.154,4.154,0,0,1-4.2-3.8L123.3,506.9a1.533,1.533,0,0,0-1.6-1.3,1.548,1.548,0,0,0-1.1.8L97,558.6l-41.7,68a4.306,4.306,0,0,1-5.3,1.7L33.3,621a4.34,4.34,0,0,1-2.2-5.6c.1-.2.2-.3.2-.5l38.3-64.2,11.8-54.1c-3.7-23.5,12.2-58.3,12.3-58.7l.1-.2,43.7-17.1.2.3c17.2,56.5,27.7,117.3,20,208.6A4.015,4.015,0,0,1,153.6,633.4Z" fill="#2f2e41"/>
    <path id="Tracé_15643" data-name="Tracé 15643" d="M92.2,443.5,92,443c-.1-.2-9.8-20.7-17.3-42.6a32.375,32.375,0,0,1,23-41.9h0a32.653,32.653,0,0,1,37.9,19.6c5.9,14.8,4,30.7,2.3,43.2v.2l-.2.1Z" fill="#5de8c1"/>
    <path id="Tracé_15644" data-name="Tracé 15644" d="M129.3,322.6H92.5v-16c8.1-3.2,16-5.9,20.8,0a15.983,15.983,0,0,1,16,16Z" fill="#2f2e41"/>
    <path id="Tracé_15645" data-name="Tracé 15645" d="M90.4,303.7c-22,0-28.2,27.6-28.2,43.1,0,8.7,3.9,11.8,10.1,12.8L74.5,348l5.1,12.1c1.7,0,3.6,0,5.4-.1l1.7-3.6,3.9,3.5c15.4,0,27.9,2.3,27.9-13.2C118.6,331.3,113.2,303.7,90.4,303.7Z" fill="#2f2e41"/>
    <path id="Tracé_15646" data-name="Tracé 15646" d="M193,661.5H1a1,1,0,0,1,0-2H193a1,1,0,0,1,0,2Z" fill="#ccc"/>
    <path id="Tracé_15647" data-name="Tracé 15647" d="M196.6,332.5h-43a9.56,9.56,0,0,1-9.5-9.5V280a9.56,9.56,0,0,1,9.5-9.5h43a9.56,9.56,0,0,1,9.5,9.5v43A9.5,9.5,0,0,1,196.6,332.5Z" fill="#fff"/>
    <path id="Tracé_15648" data-name="Tracé 15648" d="M196.6,332.5h-43a9.56,9.56,0,0,1-9.5-9.5V280a9.56,9.56,0,0,1,9.5-9.5h43a9.56,9.56,0,0,1,9.5,9.5v43A9.5,9.5,0,0,1,196.6,332.5Zm-43-60a7.555,7.555,0,0,0-7.5,7.5v43a7.555,7.555,0,0,0,7.5,7.5h43a7.555,7.555,0,0,0,7.5-7.5V280a7.555,7.555,0,0,0-7.5-7.5Z" fill="#3f3d56"/>
    <path id="Tracé_15649" data-name="Tracé 15649" d="M189.1,315h-28a2.946,2.946,0,0,1-3-3V291a2.946,2.946,0,0,1,3-3H169a3.143,3.143,0,0,1,2.6,1.4l2.2,3.6h15.4a2.946,2.946,0,0,1,3,3v16A3.166,3.166,0,0,1,189.1,315Z" fill="#572ce8"/>
    <path id="Tracé_15650" data-name="Tracé 15650" d="M188.2,325.6c.1.3.3.5.4.8a10.367,10.367,0,0,1-5.3,13.7,4.874,4.874,0,0,1-1.1.4,3.553,3.553,0,0,1-1,.2l-19.1,49.4a8.077,8.077,0,0,1-8.2,5.1h-.1l-41.4-12.5a8.922,8.922,0,0,1,5.1-17.1h.2L147,375l22.7-40.2a5.024,5.024,0,0,1-.5-1.3,10.339,10.339,0,0,1,6.8-13,10.635,10.635,0,0,1,12.2,5.1Z" fill="#a0616a"/>
  </g>
</svg>
